<?xml version="1.0" encoding="utf-8"?>
<!-- Generator: Adobe Illustrator 25.3.1, SVG Export Plug-In . SVG Version: 6.00 Build 0)  -->
<svg version="1.1" id="Layer_1" xmlns="http://www.w3.org/2000/svg" xmlns:xlink="http://www.w3.org/1999/xlink" x="0px" y="0px"
	 viewBox="0 0 77 57" style="enable-background:new 0 0 77 57;" xml:space="preserve">
<style type="text/css">
	.st0{fill-rule:evenodd;clip-rule:evenodd;fill:#CBD084;}
	.st1{fill:#CBD084;stroke:#FFFFFF;stroke-width:2;stroke-linecap:round;stroke-linejoin:round;}
</style>
<path class="st0" d="M54.6,46H57V11.8h-2.4V46z"/>
<path class="st0" d="M75.3,6.1H63.8c-4.8,0-8.7,3.9-8.7,8.7v3.4h0.1c0.3-4.5,4.1-8.1,8.6-8.1h11.4c0-0.2,0.1-0.4,0.1-0.7V6.1z"/>
<path class="st1" d="M75.3,6.1H63.8c-4.8,0-8.7,3.9-8.7,8.7v3.4h0.1c0.3-4.5,4.1-8.1,8.6-8.1h11.4c0-0.2,0.1-0.4,0.1-0.7V6.1z"/>
<path class="st0" d="M55.2,18.1h11.4c4.6,0,8.3-3.6,8.6-8.1H63.8C59.3,10.1,55.5,13.6,55.2,18.1z"/>
<path class="st1" d="M55.2,18.1h11.4c4.6,0,8.3-3.6,8.6-8.1H63.8C59.3,10.1,55.5,13.6,55.2,18.1z"/>
<path class="st0" d="M55.1,12.1H43.7c-4.8,0-8.7-3.9-8.7-8.7V0h0.1c0.3,4.5,4.1,8.1,8.6,8.1h11.3c0,0.2,0.1,0.4,0.1,0.7V12.1z"/>
<path class="st1" d="M55.1,12.1H43.7c-4.8,0-8.7-3.9-8.7-8.7V0h0.1c0.3,4.5,4.1,8.1,8.6,8.1h11.3c0,0.2,0.1,0.4,0.1,0.7V12.1z"/>
<path class="st0" d="M35.1,0h11.4c4.6,0,8.3,3.6,8.6,8.1H43.7C39.1,8.1,35.4,4.5,35.1,0z"/>
<path class="st1" d="M35.1,0h11.4c4.6,0,8.3,3.6,8.6,8.1H43.7C39.1,8.1,35.4,4.5,35.1,0z"/>
<path class="st0" d="M57.4,35.3c0-2.9-2.1-5.3-5-5.7l-15.2-1.9L1,56h28l8.2-10.6"/>
<path class="st1" d="M57.4,35.3L57.4,35.3c0-2.9-2.1-5.3-5-5.7l-13-1.6c-1.4-0.2-2.8,0.2-3.9,1.1L1,56"/>
<path class="st0" d="M67,27.8l-4.1,0.5c-0.5,0.1-1,0.2-1.5,0.5l-4.8,2.9V38H61L67,27.8z"/>
<path class="st1" d="M67,27.8l-4.1,0.5c-0.5,0.1-1,0.2-1.5,0.5l-4.8,2.9V38H61L67,27.8z"/>
<path class="st0" d="M44.8,35.3h15.1l8.6-8.6c0.9-0.9,2.2-1.1,3.2-0.5l3.2,1.6L59.9,45.4H37.2L29,56"/>
<path class="st1" d="M44.8,35.3h15.1l8.6-8.6c0.9-0.9,2.2-1.1,3.2-0.5l3.2,1.6L59.9,45.4H37.2L29,56"/>
</svg>
