<?xml version="1.0" encoding="utf-8"?>
<!-- Generator: Adobe Illustrator 25.3.1, SVG Export Plug-In . SVG Version: 6.00 Build 0)  -->
<svg version="1.1" id="Layer_1" xmlns="http://www.w3.org/2000/svg" xmlns:xlink="http://www.w3.org/1999/xlink" x="0px" y="0px"
	 viewBox="0 0 78 64" style="enable-background:new 0 0 78 64;" xml:space="preserve">
<style type="text/css">
	.st0{fill-rule:evenodd;clip-rule:evenodd;fill:#CBD084;}
	.st1{fill:#CBD084;stroke:#FFFFFF;stroke-width:2;stroke-linecap:round;stroke-linejoin:round;}
	.st2{fill:#CBD084;stroke:#FFFFFF;stroke-width:2;}
	.st3{fill-rule:evenodd;clip-rule:evenodd;fill:#FFFFFF;filter:url(#Adobe_OpacityMaskFilter);}
	.st4{mask:url(#mask0_1_);}
</style>
<path class="st0" d="M75.7,63H39.5V49c0-4.6,3-8.7,7.4-10l10.7-3.2l10.7,3.2c4.4,1.3,7.4,5.4,7.4,10V63z"/>
<path class="st1" d="M75.7,63H39.5V49c0-4.6,3-8.7,7.4-10l10.7-3.2l10.7,3.2c4.4,1.3,7.4,5.4,7.4,10V63z"/>
<path class="st0" d="M67.1,21.4l-2.4-9H50.5l-2.4,9l-9.5,5.4h38L67.1,21.4z"/>
<path class="st1" d="M67.1,21.4l-2.4-9H50.5l-2.4,9l-9.5,5.4h38L67.1,21.4z"/>
<path class="st2" d="M67.1,21.4h-19"/>
<path class="st0" d="M57.6,43.1c-5,0-9-4.1-9-9v-7.2h18.1V34C66.7,39,62.6,43.1,57.6,43.1z"/>
<path class="st1" d="M57.6,43.1L57.6,43.1c-5,0-9-4.1-9-9v-7.2h18.1V34C66.7,39,62.6,43.1,57.6,43.1z"/>
<path class="st0" d="M46.4,63H2.1V45.9c0-5.6,3.7-10.6,9.1-12.2l13-3.9l13,3.9c5.4,1.6,9.1,6.6,9.1,12.2V63z"/>
<path class="st1" d="M46.4,63H2.1V45.9c0-5.6,3.7-10.6,9.1-12.2l13-3.9l13,3.9c5.4,1.6,9.1,6.6,9.1,12.2V63z"/>
<path class="st0" d="M35.9,12.1L33,1H15.5l-2.9,11.1L1,18.7h46.5L35.9,12.1z"/>
<path class="st1" d="M35.9,12.1L33,1H15.5l-2.9,11.1L1,18.7h46.5L35.9,12.1z"/>
<path class="st2" d="M35.9,12.1H12.6"/>
<path class="st0" d="M24.2,38.6c-6.1,0-11.1-5-11.1-11.1v-8.9h22.1v8.9C35.3,33.7,30.4,38.6,24.2,38.6z"/>
<path class="st1" d="M24.2,38.6L24.2,38.6c-6.1,0-11.1-5-11.1-11.1v-8.9h22.1v8.9C35.3,33.7,30.4,38.6,24.2,38.6z"/>
<defs>
	<filter id="Adobe_OpacityMaskFilter" filterUnits="userSpaceOnUse" x="7.8" y="28" width="33" height="36">
		<feColorMatrix  type="matrix" values="1 0 0 0 0  0 1 0 0 0  0 0 1 0 0  0 0 0 1 0"/>
	</filter>
</defs>
<mask maskUnits="userSpaceOnUse" x="7.8" y="28" width="33" height="36" id="mask0_1_">
	<path class="st3" d="M0,64h77.6V0H0V64z"/>
</mask>
<g class="st4">
	<path class="st1" d="M8.8,63h31V45.3h-31V63z"/>
	<path class="st1" d="M11,45.3V34.2"/>
	<path class="st1" d="M37.5,45.3V34.2"/>
	<path class="st0" d="M35.3,51.9c0,1.2-1,2.2-2.2,2.2c-1.2,0-2.2-1-2.2-2.2s1-2.2,2.2-2.2C34.3,49.7,35.3,50.7,35.3,51.9z"/>
	<path class="st0" d="M17.6,51.9c0,1.2-1,2.2-2.2,2.2c-1.2,0-2.2-1-2.2-2.2s1-2.2,2.2-2.2C16.6,49.7,17.6,50.7,17.6,51.9z"/>
	<path class="st0" d="M19,29c0.8,2.3,3,4,5.5,4c2.5,0,4.7-1.7,5.5-4"/>
	<path class="st1" d="M19,29c0.8,2.3,3,4,5.5,4c2.5,0,4.7-1.7,5.5-4"/>
</g>
</svg>
