<?xml version="1.0" encoding="utf-8"?>
<!-- Generator: Adobe Illustrator 25.3.1, SVG Export Plug-In . SVG Version: 6.00 Build 0)  -->
<svg version="1.1" id="Layer_1" xmlns="http://www.w3.org/2000/svg" xmlns:xlink="http://www.w3.org/1999/xlink" x="0px" y="0px"
	 viewBox="0 0 123 36" style="enable-background:new 0 0 123 36;" xml:space="preserve">
<style type="text/css">
	.st0{fill:#FFFFFF;}
	.st1{fill:#3F1F5F;}
	.st2{fill:#CBD084;}
	.st3{fill:#7D8928;}
	.st4{font-family:'Microsoft-Himalaya';}
	.st5{font-size:20px;}
</style>
<g>
	<g>
		<path class="st0" d="M-22.7,10.7l-0.2,1.6L-22,11c0.1-0.1,0-0.3-0.1-0.4l-0.2-0.1C-22.5,10.4-22.7,10.6-22.7,10.7z"/>
		<path class="st0" d="M-21.5,12.2l-1.6-0.1l1.3,0.8c0.1,0.1,0.3,0,0.4-0.1l0.1-0.2C-21.2,12.4-21.3,12.3-21.5,12.2z"/>
		<path class="st0" d="M-21.7,11.3l-1.2,1l1.5-0.3c0.2,0,0.3-0.2,0.2-0.4l-0.1-0.2C-21.3,11.2-21.5,11.2-21.7,11.3z"/>
		<g>
			<path class="st0" d="M-21.9,13.4l-1.1-1.2l0.4,1.5c0,0.2,0.2,0.2,0.4,0.2l0.2-0.1C-21.8,13.7-21.7,13.5-21.9,13.4z"/>
			<g>
				<path class="st0" d="M-29.7,25.7c0.6-0.4,1.3-0.9,2-1.3c3-1.9,6.2-3.7,9.7-4.8c-0.1,0-0.3,0-0.5,0c-1.2,0.1-2.5,0.1-3.7,0.3
					l-0.7-7.3l0.1-0.3l0,0l0,0l0,0l0.1-0.1l-0.1,0l0,0l0,0l0,0l-0.2-1.5c0-0.2-0.2-0.3-0.4-0.2l-0.2,0.1c-0.2,0.1-0.2,0.3-0.1,0.4
					l0.7,1l-1.1-0.8c-0.1-0.1-0.4-0.1-0.4,0.1l-0.1,0.2c-0.1,0.2,0,0.3,0.2,0.4l1.5,0.3l0,0l0,0l0,0l0,0l-1.4,0.1
					c-0.2,0-0.3,0.2-0.2,0.4l0.1,0.2c0.1,0.2,0.2,0.2,0.4,0.1l1.1-0.7v0l-0.9,1c-0.1,0.1-0.1,0.3,0.1,0.4l0.2,0.1
					c0.2,0.1,0.3,0,0.4-0.2l0.2-0.7l-0.5,7c-0.4,0-0.8,0.1-1.2,0.2l-0.1-2.1l-2.4-1.9l-2.2,2v2.9c-0.8,0.2-1.6,0.5-2.3,0.8
					c-0.3,0.1-0.6,0.3-0.9,0.4c-0.1,0-0.8,0.5-0.9,0.5c0.6,0.4,1.2,0.7,1.7,1.1C-31.1,24.5-30.3,25.1-29.7,25.7z M-27.8,18.1
					l0.7-0.5l0.7,0.5l0,0.9l-1.4,0V18.1z"/>
				<path class="st0" d="M-28.9,26.4c1.1,1,2.1,2.1,3.1,3.2c0.1,0.1,0.2,0.2,0.3,0.3c0.8-0.7,1.6-1.4,2.3-2.2
					c0.8-0.9,1.6-1.8,2.4-2.7c0.8-1,1.5-2,2.1-3.1c0.2-0.4,0.5-0.8,0.7-1.2c-0.2,0.1-0.3,0.1-0.5,0.2
					C-22.2,22.1-25.6,24.2-28.9,26.4z"/>
				<path class="st0" d="M-20.4,25.9c-1.4,1.6-2.8,3.3-4.5,4.6c0.6,0.7,1.1,1.3,1.6,2c3.5-2.8,5.8-6.9,6.2-11.6
					C-18,22.7-19.1,24.4-20.4,25.9z"/>
				<path class="st0" d="M-32.4,24.6c-2-1.4-4.2-2.5-6.6-3.3c-1.3-0.5-2.7-0.8-4.1-1.1v-1.4c0.5,0,0.8,0.1,1.1,0.1
					c-0.2-0.2-0.5-0.5-0.8-0.9c0,0,0,0,0,0c0.3,0,0.6,0.1,0.8,0.2c-0.2-0.2-0.5-0.5-0.8-0.9c0,0,0-0.1-0.1-0.1
					c0.4,0,0.6,0.1,0.8,0.2c-0.2-0.2-0.5-0.5-0.8-0.8c0.3,0,0.6,0.1,0.8,0.2c-0.2-0.2-0.5-0.5-0.8-0.9c-0.2-0.3-0.4-0.6-0.5-0.8
					c-0.1,0.2-0.3,0.5-0.5,0.8c-0.2,0.3-0.5,0.6-0.7,0.8c0.2-0.1,0.4-0.1,0.7-0.2c-0.2,0.3-0.5,0.6-0.7,0.8c0.2-0.1,0.5-0.2,0.8-0.2
					c0,0-0.1,0.1-0.1,0.1c-0.2,0.3-0.5,0.6-0.7,0.8c0.2-0.1,0.4-0.1,0.8-0.2c0,0,0,0,0,0.1c-0.2,0.3-0.5,0.6-0.7,0.8
					c0.2-0.1,0.6-0.1,1.1-0.2v1.3c-0.4-0.1-0.7-0.1-1.1-0.2c-0.7-0.1-1.3-0.2-2-0.3v-1.3c0.7,0,1.2,0,1.5,0.1
					c-0.3-0.3-0.7-0.7-1.1-1.3c0,0,0,0,0,0c0.5,0.1,0.8,0.2,1.1,0.3c-0.3-0.3-0.7-0.7-1.1-1.3c0,0,0-0.1-0.1-0.1
					c0.5,0.1,0.9,0.2,1.2,0.3c-0.3-0.3-0.7-0.7-1-1.2c0.4,0.1,0.8,0.2,1,0.3c-0.3-0.3-0.7-0.7-1.1-1.3c-0.3-0.4-0.5-0.8-0.6-1.1
					c-0.2,0.4-0.4,0.8-0.7,1.2c-0.3,0.5-0.7,0.9-1,1.2c0.2-0.1,0.6-0.2,1-0.3c-0.3,0.5-0.7,0.9-1,1.2c0.3-0.1,0.6-0.2,1.1-0.3
					c0,0.1-0.1,0.1-0.1,0.2c-0.3,0.5-0.7,0.9-1,1.2c0.3-0.1,0.6-0.2,1-0.3c0,0,0,0,0,0.1c-0.3,0.5-0.7,0.9-1,1.2
					c0.3-0.1,0.9-0.1,1.5-0.1v1.2c-1.1-0.1-2.2-0.2-3.3-0.2c-0.1,0-0.2,0-0.3,0c0.8,0.2,1.7,0.5,2.5,0.8c1.2,0.4,2.4,0.8,3.6,1.3
					c4.3,1.7,8.3,4.1,12,6.9c1.8,1.4,3.4,2.9,5,4.5c0.5,0.5,0.9,0.9,1.3,1.4c0.7-0.4,1.4-0.8,2-1.3c-1-1.3-2-2.5-3.1-3.7
					C-28.6,27.7-30.4,26-32.4,24.6z"/>
				<path class="st0" d="M-28.6,33c-1.6-1.5-3.2-3-4.9-4.3c-1.8-1.3-3.7-2.6-5.6-3.7c-2-1.1-4-2.1-6.1-2.8c-1-0.4-2.1-0.7-3.1-1.1
					c-0.7-0.3-1.4-0.5-2.2-0.7c0,0,0,0.1,0,0.1c1.5,1,3.1,2,4.6,3c3.3,2.2,6.1,5,8.9,7.8c1.3,1.4,2.7,2.7,4,4.1
					c0.2,0.3,0.5,0.5,0.7,0.8c2-0.2,3.8-0.7,5.5-1.4C-27.4,34.2-28,33.6-28.6,33z"/>
				<path class="st0" d="M-48.2,25.8c-0.6-0.7-1.2-1.4-1.9-2.1c0.9,3.5,3,6.7,5.8,9c1.1,0.9,2.3,1.6,3.6,2.2c-1.4-2-2.9-3.9-4.5-5.7
					C-46.2,28-47.2,26.9-48.2,25.8z"/>
				<path class="st0" d="M-38.4,31.4c-1.4-1.4-2.8-2.8-4.2-4c-1.4-1.3-3-2.4-4.6-3.5c-1.1-0.7-2.2-1.4-3.3-2.1c0,0,0,0,0,0
					c1.2,1.2,2.3,2.5,3.4,3.7c1,1.2,2.1,2.3,3.2,3.4c1,1.1,1.9,2.3,2.8,3.5c0.7,1,1.4,2,2.1,3c1.7,0.6,3.5,0.8,5.2,0.8
					c0,0,0.1,0,0.1,0c-0.3-0.3-0.5-0.6-0.8-0.9C-35.8,34.1-37.1,32.7-38.4,31.4z"/>
			</g>
		</g>
	</g>
	<g>
		<path class="st1" d="M-34.6,2.4C-34.6,2.4-34.6,2.4-34.6,2.4c0.3,0,0.5,0,0.8,0c0,0,0,0,0,0c0,0,0,0,0,0c0,0,0,0,0,0
			C-34.1,2.3-34.3,2.3-34.6,2.4C-34.6,2.3-34.6,2.3-34.6,2.4C-34.6,2.4-34.6,2.4-34.6,2.4z"/>
		<path class="st1" d="M-40.8,3.9C-40.8,3.9-40.8,3.9-40.8,3.9c0.3-0.1,0.5-0.2,0.8-0.3c0,0,0,0,0,0c0,0,0,0,0,0
			C-40.4,3.7-40.6,3.8-40.8,3.9C-40.9,3.9-40.9,3.9-40.8,3.9C-40.9,3.9-40.8,3.9-40.8,3.9z"/>
		<path class="st1" d="M-43.6,5.6C-43.6,5.6-43.6,5.6-43.6,5.6c0.2-0.2,0.5-0.3,0.7-0.5c0,0,0,0,0,0c0,0,0,0,0,0
			C-43.2,5.2-43.4,5.4-43.6,5.6C-43.6,5.5-43.6,5.6-43.6,5.6C-43.6,5.6-43.6,5.6-43.6,5.6z"/>
		<path class="st1" d="M-44.9,6.6C-44.9,6.6-44.9,6.6-44.9,6.6c0.2-0.2,0.4-0.4,0.6-0.5c0,0,0,0,0,0c0,0,0,0,0,0
			C-44.5,6.2-44.7,6.4-44.9,6.6C-44.9,6.5-44.9,6.6-44.9,6.6C-44.9,6.6-44.9,6.6-44.9,6.6z"/>
		<path class="st1" d="M-37.8,2.9C-37.8,2.9-37.8,2.9-37.8,2.9c0.3-0.1,0.5-0.1,0.8-0.2c0,0,0,0,0,0c0,0,0,0,0,0
			C-37.3,2.7-37.5,2.7-37.8,2.9C-37.8,2.8-37.8,2.8-37.8,2.9C-37.8,2.9-37.8,2.9-37.8,2.9z"/>
		<path class="st1" d="M-36.2,2.6C-36.2,2.6-36.2,2.6-36.2,2.6c0.3,0,0.5-0.1,0.8-0.1c0,0,0,0,0,0c0,0,0,0,0,0
			C-35.7,2.4-36,2.4-36.2,2.6C-36.2,2.5-36.2,2.5-36.2,2.6C-36.2,2.5-36.2,2.6-36.2,2.6z"/>
		<path class="st1" d="M-42.3,4.7C-42.3,4.7-42.3,4.7-42.3,4.7c0.2-0.1,0.5-0.3,0.7-0.4c0,0,0,0,0,0c0,0,0,0,0,0
			C-41.8,4.4-42,4.5-42.3,4.7C-42.3,4.6-42.3,4.7-42.3,4.7C-42.3,4.7-42.3,4.7-42.3,4.7z"/>
		<path class="st1" d="M-46,7.7C-46,7.7-46,7.7-46,7.7c0.2-0.2,0.4-0.4,0.6-0.6c0,0,0,0,0,0c0,0,0,0,0,0C-45.7,7.3-45.9,7.5-46,7.7
			C-46.1,7.7-46.1,7.7-46,7.7C-46,7.7-46,7.7-46,7.7z"/>
		<path class="st1" d="M-49.9,14.7C-49.9,14.7-49.9,14.7-49.9,14.7C-49.9,14.7-49.9,14.7-49.9,14.7c0.1-0.3,0.2-0.5,0.3-0.8
			c0,0,0,0,0,0c0,0,0,0,0,0C-49.8,14.1-49.9,14.4-49.9,14.7C-50,14.6-49.9,14.7-49.9,14.7z"/>
		<path class="st1" d="M-50.3,16.2C-50.3,16.2-50.3,16.2-50.3,16.2C-50.3,16.2-50.2,16.2-50.3,16.2c0.1-0.3,0.1-0.6,0.2-0.8
			c0,0,0,0,0,0c0,0,0,0,0,0C-50.2,15.7-50.3,15.9-50.3,16.2C-50.3,16.2-50.3,16.2-50.3,16.2z"/>
		<path class="st1" d="M-49.4,13.1C-49.4,13.1-49.4,13.1-49.4,13.1C-49.4,13.1-49.4,13.1-49.4,13.1c0.1-0.3,0.2-0.5,0.3-0.8
			c0,0,0,0,0,0c0,0,0,0,0,0C-49.2,12.6-49.4,12.8-49.4,13.1C-49.5,13.1-49.4,13.1-49.4,13.1z"/>
		<path class="st1" d="M-47.1,8.9C-47.1,8.9-47,8.9-47.1,8.9c0.2-0.2,0.4-0.4,0.5-0.6c0,0,0,0,0,0c0,0,0,0,0,0
			C-46.8,8.5-46.9,8.7-47.1,8.9C-47.1,8.9-47.1,8.9-47.1,8.9C-47.1,8.9-47.1,8.9-47.1,8.9z"/>
		<path class="st1" d="M-48,10.3C-48,10.3-48,10.3-48,10.3C-48,10.3-48,10.3-48,10.3c0.2-0.2,0.3-0.5,0.5-0.7c0,0,0,0,0,0
			c0,0,0,0,0,0C-47.7,9.8-47.9,10-48,10.3C-48,10.2-48,10.3-48,10.3z"/>
		<path class="st1" d="M-48.8,11.7C-48.8,11.7-48.8,11.7-48.8,11.7C-48.8,11.7-48.7,11.7-48.8,11.7c0.2-0.3,0.3-0.5,0.4-0.7
			c0,0,0,0,0,0c0,0,0,0,0,0C-48.6,11.1-48.7,11.4-48.8,11.7C-48.8,11.6-48.8,11.7-48.8,11.7z"/>
		<path class="st1" d="M-26.8,3.9c0.2,0.1,0.5,0.2,0.7,0.3c0,0,0,0,0,0c0,0,0,0,0,0c0,0,0,0,0,0C-26.3,4-26.5,3.9-26.8,3.9
			C-26.8,3.8-26.8,3.8-26.8,3.9C-26.8,3.8-26.8,3.9-26.8,3.9z"/>
		<path class="st1" d="M-18.4,12.2C-18.4,12.2-18.4,12.2-18.4,12.2C-18.4,12.2-18.4,12.2-18.4,12.2C-18.4,12.2-18.3,12.2-18.4,12.2
			c0-0.3-0.2-0.5-0.3-0.8c0,0,0,0,0,0c0,0,0,0,0,0C-18.6,11.7-18.5,12-18.4,12.2z"/>
		<path class="st1" d="M-19.1,10.8C-19.1,10.8-19.1,10.8-19.1,10.8C-19.1,10.8-19.1,10.8-19.1,10.8C-19.1,10.8-19.1,10.8-19.1,10.8
			c-0.1-0.3-0.2-0.5-0.4-0.7c0,0,0,0,0,0c0,0,0,0,0,0C-19.4,10.3-19.3,10.5-19.1,10.8z"/>
		<path class="st1" d="M-20,9.4C-20,9.4-20,9.4-20,9.4C-20,9.4-20,9.4-20,9.4C-20,9.4-20,9.4-20,9.4c-0.1-0.3-0.3-0.5-0.4-0.7
			c0,0,0,0,0,0c0,0,0,0,0,0C-20.3,9-20.2,9.2-20,9.4z"/>
		<path class="st1" d="M-17.8,13.7C-17.8,13.7-17.8,13.7-17.8,13.7C-17.8,13.7-17.8,13.7-17.8,13.7C-17.8,13.7-17.7,13.7-17.8,13.7
			c0-0.3-0.1-0.5-0.2-0.8c0,0,0,0,0,0c0,0,0,0,0,0C-18,13.2-17.9,13.4-17.8,13.7z"/>
		<path class="st1" d="M-16.9,18.5C-16.9,18.5-16.9,18.5-16.9,18.5C-16.9,18.5-16.9,18.4-16.9,18.5c0-0.3,0-0.6,0-0.8c0,0,0,0,0,0
			c0,0,0,0,0,0C-17,17.9-16.9,18.2-16.9,18.5C-16.9,18.4-16.9,18.5-16.9,18.5z"/>
		<path class="st1" d="M-21,8.2C-21,8.2-21,8.2-21,8.2C-21,8.2-21,8.2-21,8.2C-21,8.1-21,8.1-21,8.2c-0.1-0.2-0.3-0.4-0.5-0.6
			c0,0,0,0,0,0c0,0,0,0,0,0C-21.4,7.8-21.2,8-21,8.2z"/>
		<path class="st1" d="M-17,16.9C-17,16.9-17,16.9-17,16.9C-17,16.9-17,16.8-17,16.9c0-0.3,0-0.6-0.1-0.8c0,0,0,0,0,0c0,0,0,0,0,0
			C-17.2,16.3-17.1,16.6-17,16.9C-17.1,16.8-17.1,16.9-17,16.9z"/>
		<path class="st1" d="M-17.4,15.2C-17.4,15.3-17.4,15.3-17.4,15.2C-17.3,15.3-17.3,15.3-17.4,15.2C-17.3,15.3-17.3,15.2-17.4,15.2
			c0-0.3-0.1-0.5-0.1-0.8c0,0,0,0,0,0c0,0,0,0,0,0C-17.5,14.7-17.4,15-17.4,15.2z"/>
		<path class="st1" d="M-31.4,2.5c0.3,0,0.5,0.1,0.8,0.1c0,0,0,0,0,0c0,0,0,0,0,0c0,0,0,0,0,0C-30.8,2.5-31.1,2.5-31.4,2.5
			C-31.4,2.5-31.4,2.5-31.4,2.5C-31.4,2.5-31.4,2.5-31.4,2.5z"/>
		<path class="st1" d="M-22.1,7C-22.1,7-22.1,7-22.1,7C-22.1,7-22.1,7-22.1,7C-22.1,7-22.1,7-22.1,7c-0.1-0.2-0.3-0.4-0.6-0.6
			c0,0,0,0,0,0c0,0,0,0,0,0C-22.5,6.6-22.3,6.8-22.1,7z"/>
		<path class="st1" d="M-33,2.4c0.3,0,0.5,0,0.8,0.1c0,0,0,0,0,0c0,0,0,0,0,0c0,0,0,0,0,0C-32.5,2.3-32.7,2.3-33,2.4
			C-33,2.3-33,2.3-33,2.4C-33,2.4-33,2.4-33,2.4z"/>
		<path class="st1" d="M-28.3,3.3c0.3,0.1,0.5,0.2,0.8,0.3c0,0,0,0,0,0c0,0,0,0,0,0c0,0,0,0,0,0C-27.7,3.4-28,3.3-28.3,3.3
			C-28.3,3.2-28.3,3.2-28.3,3.3C-28.3,3.2-28.3,3.3-28.3,3.3z"/>
		<path class="st1" d="M-29.8,2.8C-29.5,2.9-29.3,3-29,3c0,0,0,0,0,0c0,0,0,0,0,0c0,0,0,0,0,0C-29.3,2.9-29.5,2.8-29.8,2.8
			C-29.8,2.8-29.8,2.8-29.8,2.8C-29.8,2.8-29.8,2.8-29.8,2.8z"/>
		<path class="st1" d="M-23.3,5.9C-23.3,5.9-23.3,5.9-23.3,5.9C-23.3,5.9-23.3,5.9-23.3,5.9C-23.3,5.9-23.3,5.9-23.3,5.9
			c-0.2-0.2-0.4-0.4-0.6-0.5c0,0,0,0,0,0c0,0,0,0,0,0C-23.8,5.6-23.6,5.8-23.3,5.9z"/>
		<path class="st1" d="M-25.3,4.6c0.2,0.1,0.5,0.3,0.7,0.4c0,0,0,0,0,0c0,0,0,0,0,0c0,0,0,0,0,0C-24.8,4.8-25.1,4.7-25.3,4.6
			C-25.3,4.5-25.3,4.5-25.3,4.6C-25.4,4.6-25.4,4.6-25.3,4.6z"/>
		<path class="st1" d="M-50.5,17.8C-50.5,17.8-50.5,17.8-50.5,17.8C-50.5,17.8-50.4,17.8-50.5,17.8c0.1-0.3,0.1-0.6,0.1-0.8
			c0,0,0,0,0,0c0,0,0,0,0,0C-50.5,17.3-50.5,17.5-50.5,17.8C-50.5,17.8-50.5,17.8-50.5,17.8z"/>
		<path class="st1" d="M-39.3,3.3C-39.3,3.3-39.3,3.3-39.3,3.3c0.3-0.1,0.5-0.2,0.8-0.3c0,0,0,0,0,0c0,0,0,0,0,0
			C-38.8,3.1-39.1,3.2-39.3,3.3C-39.4,3.3-39.4,3.3-39.3,3.3C-39.4,3.3-39.4,3.3-39.3,3.3z"/>
		<path class="st1" d="M-16.9,20C-16.9,20.1-16.9,20.1-16.9,20C-16.9,20.1-16.9,20.1-16.9,20C-16.9,20.1-16.9,20-16.9,20
			c-0.1-0.3,0-0.5,0-0.8c0,0,0,0,0,0c0,0,0,0,0,0c0,0,0,0,0,0C-16.9,19.5-16.9,19.8-16.9,20z"/>
		<path class="st1" d="M-16.9,19.2C-16.9,19.2-16.9,19.2-16.9,19.2C-16.9,19.2-16.9,19.2-16.9,19.2c0,0.3,0,0.6-0.1,0.8c0,0,0,0,0,0
			c0,0,0,0,0,0c0,0,0,0,0,0C-16.9,19.8-16.9,19.5-16.9,19.2C-16.9,19.2-16.9,19.2-16.9,19.2z"/>
	</g>
</g>
<text transform="matrix(1 0 0 1 -34.4697 -12.8994)" style="font-family:'MyriadPro-Regular'; font-size:12px;">33.7309</text>
<text transform="matrix(1 0 0 1 -65.0771 -21.6611)" style="font-family:'MyriadPro-Regular'; font-size:12px;">33.9811 </text>
<g>
	<path class="st2" d="M11,20.8c0-0.2,0.5-6,0.5-6h3.3l4.3-5l3.1,5l-0.4,4.1l-4.7,4.1L11,20.8z"/>
	<path class="st2" d="M4,23.6c0,0,3.6-1.2,4.2-1.2c0.6,0,6,0.6,6.4,0.6c0.4,0,3.1,0,3.3,0c0.3,0,3.4-1.8,4-2.6
		c0.6-0.7,2.4-1.2,4-1.2c1.7,0,7.5,1.8,7.8,2.2c0.3,0.4-1.4,4.5-3,6.5c-1.6,2-4.2,4.2-6.4,5c-2.1,0.8-5.4,1-7.1,1s-7.2-1.7-8-2.8
		c-0.9-1.1-3.7-4.3-4.4-5.2C4.1,24.9,4,23.6,4,23.6z"/>
	<g>
		<g>
			<rect x="18.3" y="15.4" class="st3" width="1.6" height="2"/>
		</g>
		<g>
			<path class="st3" d="M34.1,20.4L34.1,20.4C34.1,20.4,34.1,20.4,34.1,20.4c-0.2-0.1-0.3-0.2-0.5-0.3c0,0-0.1-0.1-0.1-0.1
				c0,0,0,0,0,0c0,0,0,0,0,0c-1.2-0.8-2.6-1.4-4-1.8l-0.1,0v-0.5c0.5-0.2,0.8-0.7,0.8-1.3c0-0.8-0.5-3.8-1.1-3.8
				c-0.6,0-1.1,3-1.1,3.8c0,0.6,0.3,1.2,0.8,1.3v0.4l-1.6-0.4v-0.4c0.3-0.2,0.6-0.6,0.6-1c0-0.6-0.4-3-0.9-3c-0.5,0-0.9,2.4-0.9,3
				c0,0.5,0.2,0.9,0.6,1v0.2l0,0c-0.1,0-0.1,0-0.2,0c0,0-0.1,0-0.1,0c0,0-0.1,0-0.1,0c-0.1,0-0.3-0.1-0.4-0.1
				c-0.9-0.1-2.9-0.1-2.9-0.1s-0.3,0-0.7,0v-1.5h1l-0.2-0.4l-3.3-6.3h-5v3.4h-0.4v-4h0.3V7.3h-2v1.3h0.3v1.9l-3.3,5h0.6v4.9v0.8
				c0,0-3.4-0.2-4.2-0.1l0,0v-0.3c0.5-0.2,0.8-0.7,0.8-1.3c0-0.8-0.5-3.8-1.1-3.8c-0.6,0-1.1,3-1.1,3.8c0,0.6,0.3,1.1,0.7,1.3v0.4
				l-1.8,0.2V21c0.3-0.1,0.6-0.6,0.6-1c0-0.6-0.4-3-0.9-3c-0.5,0-0.9,2.4-0.9,3c0,0.4,0.2,0.8,0.5,1v0.5l0,0c-0.2,0-0.4,0.1-0.5,0.1
				c0,0,0,0,0,0c-0.4,0.1-1,0.2-1.3,0.3c0.4,1.1,1.5,3.6,3.5,6.2c2.4,3.1,6.6,6.8,13.2,6.9c3.9,0,7.5-1.2,10.4-3.4
				c3.2-2.5,5.4-6.1,6.7-10.7C34.6,20.7,34.4,20.6,34.1,20.4z M30.9,21.1C30.9,21.1,30.9,21.1,30.9,21.1c0,0,0.1,0.1,0.1,0.1
				c-0.1,0.1-0.3,0.1-0.4,0.2c-0.1,0-0.1,0.1-0.2,0.1c-0.1,0-0.1,0.1-0.2,0.1c-0.1,0-0.1,0.1-0.2,0.1c-0.1,0-0.1,0.1-0.2,0.1
				c-0.1,0-0.1,0.1-0.2,0.1c-0.1,0-0.1,0.1-0.2,0.1c-0.1,0-0.1,0.1-0.2,0.1c-0.1,0-0.1,0.1-0.2,0.1c-0.1,0-0.1,0.1-0.2,0.1
				c-0.1,0-0.1,0.1-0.2,0.1c-0.1,0-0.1,0.1-0.2,0.1c-0.1,0.1-0.1,0.1-0.2,0.2c-0.1,0-0.1,0.1-0.2,0.1c-0.1,0.1-0.2,0.2-0.3,0.3
				c0,0-0.1,0.1-0.1,0.1c-0.1,0.1-0.1,0.1-0.2,0.2c-0.1,0-0.1,0.1-0.2,0.1c-0.1,0.1-0.1,0.1-0.2,0.2c-0.1,0-0.1,0.1-0.2,0.1
				c-0.1,0.1-0.1,0.1-0.2,0.2c-0.1,0.1-0.1,0.1-0.2,0.2c-0.1,0.1-0.1,0.1-0.2,0.2c-0.1,0.1-0.1,0.1-0.2,0.2
				c-0.1,0.1-0.1,0.1-0.2,0.2c0,0-0.1,0.1-0.1,0.1c-0.1,0.1-0.1,0.1-0.2,0.2c0,0-0.1,0.1-0.1,0.1c-0.1,0.1-0.2,0.2-0.3,0.3
				c0,0-0.1,0.1-0.1,0.1c-0.1,0.1-0.1,0.1-0.2,0.2c0,0.1-0.1,0.1-0.1,0.2c-0.1,0.1-0.1,0.1-0.2,0.2c0,0.1-0.1,0.1-0.1,0.2
				c0,0.1-0.1,0.1-0.1,0.2c0,0.1-0.1,0.1-0.1,0.2c0,0,0,0,0,0c-0.4-0.3-0.7-0.6-1.1-0.8c0.1-0.1,0.3-0.3,0.4-0.4c0,0,0,0,0.1-0.1
				c0.2-0.2,0.4-0.4,0.6-0.6c0,0,0,0,0,0c0.2-0.2,0.4-0.4,0.6-0.5c0,0,0,0,0,0c0.2-0.2,0.4-0.4,0.6-0.5c0,0,0,0,0,0
				C27.3,22.8,29,21.8,30.9,21.1z M28,20.6c0.1,0,0.1,0,0.2-0.1c0,0,0,0,0,0c0,0,0,0,0,0c0,0,0,0-0.1,0c-0.2,0.1-0.4,0.2-0.5,0.3
				c0,0-0.1,0-0.1,0c-0.4,0.2-0.8,0.5-1.2,0.7c0,0-0.1,0-0.1,0.1c-0.2,0.1-0.4,0.3-0.6,0.4c0,0,0,0,0,0c-0.1,0.1-0.2,0.1-0.3,0.2
				c-0.1,0.1-0.2,0.1-0.2,0.2c0,0,0,0-0.1,0.1c-0.2,0.1-0.4,0.3-0.5,0.4c0,0,0,0,0,0c0,0,0,0,0,0c-0.2,0.1-0.3,0.3-0.5,0.4
				c0,0,0,0,0,0c-0.2,0.2-0.3,0.3-0.5,0.5c0,0-0.1,0.1-0.1,0.1c-0.3,0.3-0.6,0.7-0.9,1c0,0,0,0,0,0c0,0,0,0-0.1,0.1
				c0,0-0.1,0.1-0.1,0.1c-0.4-0.2-0.7-0.4-1.1-0.7c0.1-0.1,0.3-0.2,0.4-0.4c0.1-0.1,0.2-0.2,0.3-0.3c0.3-0.2,0.6-0.5,0.9-0.7
				c0.2-0.1,0.4-0.3,0.6-0.4c0.1-0.1,0.2-0.2,0.4-0.2C25,21.9,26.4,21.2,28,20.6z M22.5,21.2c0.3-0.1,0.6-0.3,0.9-0.4
				c0,0,0.1,0,0.1-0.1c0.3-0.1,0.6-0.2,0.9-0.3c0,0,0,0,0.1,0c0,0,0,0,0,0c0.1,0,0.1,0,0.2,0c0,0,0,0,0,0c-0.2,0.1-0.4,0.2-0.6,0.3
				c0,0-0.1,0-0.1,0.1c-0.2,0.1-0.4,0.2-0.5,0.3c0,0-0.1,0.1-0.1,0.1c-0.2,0.1-0.3,0.2-0.5,0.3c0,0-0.1,0-0.1,0.1
				c-0.2,0.1-0.4,0.3-0.6,0.4c0,0,0,0,0,0C22,22,21.9,22,21.9,22.1c-0.1,0.1-0.2,0.1-0.3,0.2c0,0,0,0-0.1,0.1
				c-0.2,0.1-0.4,0.3-0.5,0.4c0,0-0.1,0-0.1,0.1c-0.2,0.1-0.3,0.3-0.5,0.4c0,0,0,0,0,0c-0.2,0.2-0.3,0.3-0.5,0.5
				c0,0-0.1,0.1-0.1,0.1c0,0-0.1,0.1-0.1,0.1c-0.3-0.2-0.7-0.3-1-0.5c0.4-0.3,0.8-0.6,1.3-0.9c0.2-0.1,0.3-0.2,0.5-0.3
				c0.2-0.1,0.4-0.2,0.6-0.3c0.3-0.2,0.6-0.3,0.9-0.5C22.1,21.3,22.3,21.2,22.5,21.2z M16.4,14.6l2.8-4.2l2.3,4.2v4
				c-3,1.3-5.1,3.3-5.1,3.3V14.6z M12.4,16.1H14v2h-1.6V16.1z M11.2,31.8c-1.9-2.9-4.3-5.5-6.9-7.7c3.9,2.1,7.4,5.1,10.1,8.8
				C13.3,32.7,12.2,32.3,11.2,31.8z M17.7,33.3c-0.4,0-0.9,0-1.3-0.1c-2.7-4.1-6.2-7.5-10.3-9.9c0.3,0.1,0.5,0.2,0.8,0.3
				c5,2,9.3,5.4,12.5,9.6C18.8,33.3,18.3,33.3,17.7,33.3z M21,33c-2.8-3.9-6.3-7.1-10.4-9.3c0.4,0.2,0.9,0.3,1.3,0.5
				c4.3,1.8,8.2,4.6,11.4,8.2C22.6,32.6,21.8,32.9,21,33z M24.8,31.8c-2.7-3.3-6.1-6-9.8-8c0.7,0.2,1.4,0.5,2.1,0.7
				c3.6,1.4,6.8,3.6,9.5,6.2C26,31.1,25.4,31.5,24.8,31.8z M31.1,23.6L31.1,23.6c-0.5,0.4-1,0.9-1.4,1.3l0,0
				c-0.4,0.5-0.9,0.9-1.3,1.4c0,0,0,0,0,0c-0.3,0.4-0.6,0.8-0.9,1.2c0,0,0,0,0,0c-0.1,0.1-0.1,0.2-0.2,0.3c0,0,0,0,0,0.1
				c-0.1,0.1-0.1,0.2-0.2,0.3c0,0,0,0,0,0c-0.1,0.2-0.2,0.4-0.4,0.6c-0.3-0.3-0.7-0.6-1-0.9c0,0,0,0,0,0c0,0,0-0.1,0.1-0.1
				c0.2-0.3,0.4-0.5,0.6-0.8c0,0,0,0,0.1-0.1c0.1-0.1,0.1-0.1,0.2-0.2c0,0,0.1-0.1,0.1-0.1c0.1-0.1,0.1-0.1,0.2-0.2
				c0,0,0.1-0.1,0.1-0.1c0.1-0.1,0.1-0.1,0.2-0.2c0,0,0.1-0.1,0.1-0.1c0.1-0.1,0.1-0.1,0.2-0.2c0,0,0.1-0.1,0.1-0.1
				c0.1-0.1,0.1-0.1,0.2-0.2c0,0,0.1-0.1,0.1-0.1c0.1-0.1,0.1-0.1,0.2-0.2c0,0,0.1-0.1,0.1-0.1c0.1-0.1,0.1-0.1,0.2-0.2
				c0,0,0.1-0.1,0.1-0.1c0.1-0.1,0.2-0.1,0.2-0.2c0,0,0,0,0,0c0.3-0.2,0.6-0.5,0.9-0.7c0,0,0,0,0.1,0c0.1-0.1,0.2-0.1,0.2-0.2
				c0,0,0.1,0,0.1-0.1c0.1-0.1,0.2-0.1,0.2-0.2c0,0,0.1-0.1,0.1-0.1c0.1-0.1,0.2-0.1,0.2-0.2c0,0,0.1-0.1,0.1-0.1
				c0.1,0,0.2-0.1,0.2-0.1c0,0,0.1-0.1,0.1-0.1c0.1,0,0.2-0.1,0.2-0.1c0,0,0.1,0,0.1-0.1c0.1,0,0.2-0.1,0.2-0.1c0,0,0.1,0,0.1-0.1
				c0.1,0,0.2-0.1,0.3-0.1c0,0,0.1,0,0.1-0.1c0.1,0,0.2-0.1,0.3-0.1c0,0,0,0,0,0c0,0,0,0,0,0c0,0,0,0,0.1,0.1c0,0,0,0,0,0
				C32.1,22.7,31.5,23.1,31.1,23.6z"/>
		</g>
		<path class="st3" d="M13.5,6.6C13.5,6.6,13.5,6.5,13.5,6.6c0-0.1-0.1-0.2-0.1-0.3c0-0.1,0-0.2,0-0.4c0-0.1,0.1-0.3,0.1-0.5
			c0-0.1,0.1-0.3,0.1-0.4c0-0.1,0-0.2,0-0.3l0,0l0,0c0,0,0,0,0,0l0,0l0,0l0,0l0,0c0,0,0-0.1,0-0.1c0,0,0,0,0,0c0,0,0,0,0-0.1
			c0-0.1-0.1-0.1-0.2-0.3C13.2,4,13.1,3.8,13,3.5C13,3.2,13,2.9,13,2.7l0-0.1l0-0.1c0-0.1,0-0.1,0-0.2c0-0.1,0.1-0.2,0.1-0.3
			c0.1-0.2,0.2-0.3,0.3-0.4c0.1-0.1,0.2-0.1,0.2-0.2c0.1-0.1,0.1-0.1,0.1-0.2c0-0.1,0.1-0.1,0.1-0.2C14,1,14,1,14,1s0,0,0,0.1
			c0,0,0,0.1,0.1,0.2c0,0.1,0,0.2,0,0.4c0,0.1,0,0.3-0.1,0.5c0,0.1-0.1,0.3-0.1,0.4c0,0.1,0,0.1,0,0.1c0,0,0,0,0,0.1l0,0l0,0.1
			l0,0.1l0,0l0,0c0-0.1,0,0,0,0l0,0l0,0l0,0L14,3c0,0,0,0,0,0.1c0,0,0,0,0,0.1c0,0.1,0.1,0.1,0.2,0.3c0.1,0.2,0.2,0.4,0.3,0.7
			c0,0.1,0,0.1,0,0.2c0,0.1,0,0.2,0,0.2c0,0,0,0.1,0,0.1l0,0l0,0l0,0l0,0c0,0,0,0.1,0,0l0,0l0,0.1c0,0.2-0.1,0.5-0.2,0.7
			C14.2,5.7,14,5.8,14,5.9C13.9,6,13.8,6,13.7,6.1c-0.1,0.1-0.1,0.1-0.1,0.2C13.6,6.4,13.5,6.4,13.5,6.6C13.5,6.5,13.5,6.6,13.5,6.6
			z"/>
	</g>
</g>
<text transform="matrix(1 0 0 1 46.897 14.9944)"><tspan x="0" y="0" class="st3 st4 st5">Farm </tspan><tspan x="0" y="18" class="st3 st4 st5">Wealth</tspan></text>
</svg>
